# xmcd CD database file
#
# Track frame offsets:
#	150
#	13775
#	27602
#	42150
#	55765
#	70487
#	84030
#	98387
#	114155
#	125480
#	135295
#	145140
#	158132
#	172997
#	187695
#	202920
#	215755
#	230852
#	245865
#	260190
#	275700
#	288602
#
# Disc length: 3997 seconds
#
# Revision: 0
# Processed by: cddbd v1.5.1PL0 Copyright (c) Steve Scherf et al.
# Submitted via: CDex 1.50
#
DISCID=400f9b16
DTITLE=Jazz and Dintorni # 47 - Louis Armstrong
DYEAR=1900
DGENRE=Jazz
TTITLE0=Struttin' with some barbecue
TTITLE1=Fireworks
TTITLE2=A monday date
TTITLE3=I'm not a rough
TTITLE4=Once in a while
TTITLE5=S.O.L. blues
TTITLE6=Ory's creole trombone
TTITLE7=Savoy blues
TTITLE8=Canal Street blues
TTITLE9=Mandy Lee blues
TTITLE10=Workingman blues
TTITLE11=I'm going away to wear you off my mind
TTITLE12=West End blues
TTITLE13=Basin Street blues
TTITLE14=Squeeze me
TTITLE15=Muggles
TTITLE16=St. James Infirmary
TTITLE17=Sugar foot strut
TTITLE18=Savoyager's stomp
TTITLE19=Chicago breakdown
TTITLE20=Krooked blues
TTITLE21=Zulu's ball
EXTD=
EXTT0=
EXTT1=
EXTT2=
EXTT3=
EXTT4=
EXTT5=
EXTT6=
EXTT7=
EXTT8=
EXTT9=
EXTT10=
EXTT11=
EXTT12=
EXTT13=
EXTT14=
EXTT15=
EXTT16=
EXTT17=
EXTT18=
EXTT19=
EXTT20=
EXTT21=
PLAYORDER=
